<?xml version="1.0" encoding="UTF-8" standalone="no"?>
<!-- Created with Inkscape (http://www.inkscape.org/) -->

<svg
   width="16.350677"
   height="16.349976"
   viewBox="0 0 4.3261168 4.325931"
   version="1.1"
   id="svg1"
   inkscape:version="1.3 (0e150ed6c4, 2023-07-21)"
   sodipodi:docname="cardDeck.svg"
   xml:space="preserve"
   xmlns:inkscape="http://www.inkscape.org/namespaces/inkscape"
   xmlns:sodipodi="http://sodipodi.sourceforge.net/DTD/sodipodi-0.dtd"
   xmlns="http://www.w3.org/2000/svg"
   xmlns:svg="http://www.w3.org/2000/svg"><sodipodi:namedview
     id="namedview1"
     pagecolor="#505050"
     bordercolor="#eee"
     borderopacity="1"
     inkscape:showpageshadow="0"
     inkscape:pageopacity="0"
     inkscape:pagecheckerboard="true"
     inkscape:deskcolor="#505050"
     inkscape:document-units="px"
     inkscape:zoom="2.8284271"
     inkscape:cx="249.43192"
     inkscape:cy="619.95587"
     inkscape:window-width="1920"
     inkscape:window-height="991"
     inkscape:window-x="-9"
     inkscape:window-y="-9"
     inkscape:window-maximized="1"
     inkscape:current-layer="g502"
     shape-rendering="auto"
     inkscape:clip-to-page="false"
     showguides="false"
     inkscape:export-bgcolor="#ffffff00"><sodipodi:guide
       position="555.02005,410.36188"
       orientation="-0.70710678,-0.70710678"
       id="guide1"
       inkscape:locked="false" /></sodipodi:namedview><defs
     id="defs1" /><g
     id="g2154"
     transform="matrix(0,0.05015871,-0.05015871,0,19.146446,21.513989)"
     inkscape:label="camelBlack"
     inkscape:export-filename="website\kamelen-race-website\src\logo.svg"
     inkscape:export-xdpi="96"
     inkscape:export-ydpi="96"
     style="display:inline"><path
       style="display:inline;fill:#c19a4c;fill-opacity:1;stroke-width:0.264583"
       d="m -342.67332,295.47228 c 0,0 -23.43706,-0.008 -25.7622,0 -17.11981,9.47054 -23.81041,13.22091 -23.81041,13.22091 0,0 -17.14107,-10.53237 -18.19011,1.24023 1.98153,6.1777 2.44944,3.64775 4.54753,7.028 0.69936,5.12866 -1.47335,15.15953 -1.24023,18.1901 0.46624,2.91401 4.72781,9.53026 4.96093,11.16211 0,0 -1.91203,16.32975 4.54753,25.2181 2.99723,2.94556 7.69979,7.13134 10.33528,6.61458 1.70533,-1.18856 2.17041,-5.58105 3.72071,-6.61458 1.13688,-0.8785 5.45202,2.91688 7.10566,2.24509 1.5503,-0.98185 2.24777,-2.29676 1.93771,-4.10544 -0.25838,-2.17041 -4.28914,-5.32267 -5.32267,-8.06152 -0.20671,-2.48047 7.028,-18.60352 7.028,-18.60352 l 16.12304,-13.22917 14.01923,-8.12171 z"
       id="path2133"
       sodipodi:nodetypes="ccccccccccccccccc" /><path
       style="display:inline;fill:#d71e00;fill-opacity:1;stroke-width:0.264583"
       d="m -402.3618,348.92346 20.68411,-6.78413 3.65407,-0.43847 5.20803,1.30548 -1.99244,4.54102 6.57734,-3.80024 1.46163,-2.04626 10.96222,-3.50793 -1.75395,-3.80023 -8.3313,3.36174 c 0,0 1.02314,-12.71617 -0.14616,-18.41653 -1.1693,-5.70037 -7.33842,-21.42716 -7.33842,-21.42716 l -2.92348,1.67056 c 0,0 7.04632,16.68717 7.33864,21.94904 0.29233,5.26187 0.87698,14.03165 -0.73082,15.93178 -1.60779,1.9001 -8.33129,0.58465 -8.33129,0.58465 0,0 -2.04628,-9.9391 -4.67721,-16.51643 -2.63094,-6.57733 -6.8952,-14.35139 -6.8952,-14.35139 l -2.6499,1.51423 c 0,0 6.768,11.96017 6.768,15.61425 0,3.65408 3.06942,14.17783 3.06942,14.17783 l -19.7593,7.82836 z"
       id="path2137"
       sodipodi:nodetypes="ccccccccccsccsscsccsccc" /><path
       style="fill:none;fill-opacity:1;stroke:#bcb2ad;stroke-width:0.724494;stroke-opacity:1"
       d="m -355.80684,338.19293 c 0,0 1.73194,0.45814 2.63094,-1.68089 0,0 3.58099,-2.04628 4.16564,-4.45796 0.58466,-2.4117 1.24239,-11.61997 -0.58465,-16.44335 -1.82704,-4.82338 -3.87332,-10.01215 -3.87332,-10.01215 0,0 -0.95006,-0.87699 -2.33861,-0.36542 -1.38855,0.51157 0.65774,3.87332 0.65774,3.87332 0,0 4.89646,8.2582 4.96954,11.76612 0.0731,3.5079 -0.0731,9.06211 -1.02314,10.45065 -0.95006,1.38856 -3.14251,2.63093 -3.14251,2.63093 0,0 -2.84745,-1.05272 -3.21558,0.43852 -0.89213,3.61386 1.75395,3.65974 1.75395,3.80023 z"
       id="path2139"
       sodipodi:nodetypes="ccsscscsscsc" /><path
       style="fill:none;fill-opacity:1;stroke:#bcb2ad;stroke-width:0.724495;stroke-opacity:1"
       d="m -354.34521,333.95418 1.16931,2.55786"
       id="path2141" /><path
       style="fill:#f55;fill-opacity:1;stroke:none;stroke-width:0.0118582;stroke-opacity:1"
       d="m -379.79197,372.79443 c 0.51676,-0.37465 -1.06529,-6.30243 -3.50472,-10.53182 -1.9052,-3.30315 -4.30257,-4.25779 -5.37856,-4.94058 -1.08261,-0.687 -4.79626,-3.9687 -7.1217,-1.02315 -1.24024,4.18579 1.22879,4.32031 2.88244,6.74911 2.53214,1.39526 3.51896,1.03484 5.32763,2.48178 1.08521,1.70532 1.97662,7.54122 2.90679,7.55414 0.51157,-0.14616 0.34844,-1.13196 1.1158,-1.55218 1.35201,-0.25579 3.1522,1.2627 3.77232,1.2627 z"
       id="path2145"
       sodipodi:nodetypes="csscccccc" /><path
       style="fill:none;fill-opacity:1;stroke:black;stroke-width:0.59291;stroke-opacity:1"
       d="m -382.66083,371.57658 c 0,0 -1.42855,-5.68575 -2.9998,-7.73203 -2.08283,-2.55785 -6.46772,-4.82338 -6.46772,-4.82338"
       id="path2147"
       sodipodi:nodetypes="ccc" /><path
       id="path2149"
       style="fill:white;fill-opacity:1;stroke:none;stroke-width:0.0162427;stroke-opacity:1"
       d="m -396.72408,317.36 c -3.1136,-3e-5 -5.6377,3.88394 -5.63772,8.67511 4e-5,4.79117 2.52412,8.67512 5.63772,8.67509 3.11359,3e-5 5.63767,-3.88394 5.63771,-8.67509 -3e-5,-4.79116 -2.52411,-8.67514 -5.63771,-8.67511 z"
       sodipodi:nodetypes="sssss" /><ellipse
       style="fill:black;fill-opacity:1;stroke:none;stroke-width:0.967256"
       id="ellipse2153"
       cx="-50.365707"
       cy="44.923122"
       rx="0.15944803"
       ry="0.11368815"
       transform="matrix(0,-19.936717,19.936717,0,-1291.7528,-675.25798)" /><ellipse
       style="fill:white;fill-opacity:1;stroke:none;stroke-width:0.448198"
       id="ellipse2154"
       cx="-50.266922"
       cy="44.927834"
       rx="0.02046282"
       ry="0.034348313"
       transform="matrix(0,-19.936717,19.936717,0,-1291.7528,-675.25798)" /></g><rect
     style="display:none;fill:none;fill-opacity:1;stroke:#fffffc;stroke-width:0.0264583;stroke-linecap:round;stroke-dasharray:none;stroke-opacity:1"
     id="rect2154"
     width="4.299479"
     height="4.299479"
     x="0.01322937"
     y="0.01322937" /></svg>
