<?xml version="1.0" encoding="UTF-8" standalone="no"?>
<!-- Created with Inkscape (http://www.inkscape.org/) -->

<svg
   width="77.440773"
   height="52.470737"
   viewBox="0 0 20.489538 13.882883"
   version="1.1"
   id="svg1"
   inkscape:version="1.3 (0e150ed6c4, 2023-07-21)"
   sodipodi:docname="cardDeck.svg"
   xml:space="preserve"
   xmlns:inkscape="http://www.inkscape.org/namespaces/inkscape"
   xmlns:sodipodi="http://sodipodi.sourceforge.net/DTD/sodipodi-0.dtd"
   xmlns="http://www.w3.org/2000/svg"
   xmlns:svg="http://www.w3.org/2000/svg"><sodipodi:namedview
     id="namedview1"
     pagecolor="#505050"
     bordercolor="#eee"
     borderopacity="1"
     inkscape:showpageshadow="0"
     inkscape:pageopacity="0"
     inkscape:pagecheckerboard="true"
     inkscape:deskcolor="#505050"
     inkscape:document-units="px"
     inkscape:zoom="0.5"
     inkscape:cx="555"
     inkscape:cy="471"
     inkscape:window-width="1536"
     inkscape:window-height="793"
     inkscape:window-x="-8"
     inkscape:window-y="-8"
     inkscape:window-maximized="1"
     inkscape:current-layer="layer6"
     shape-rendering="auto"
     inkscape:clip-to-page="false"
     showguides="true"
     inkscape:export-bgcolor="#ffffff00"><sodipodi:guide
       position="554.84312,390.78372"
       orientation="-0.70710678,-0.70710678"
       id="guide1"
       inkscape:locked="false" /></sodipodi:namedview><defs
     id="defs1" /><g
     inkscape:groupmode="layer"
     id="layer4"
     inkscape:label="Symbols"
     style="display:inline"
     transform="translate(39.551247,-117.33874)"><g
       id="g166"
       transform="matrix(0,0.05015871,-0.05015871,0,-20.58173,137.92568)"
       inkscape:label="camelBlack"
       inkscape:export-filename="website\kamelen-race-website\src\logo.svg"
       inkscape:export-xdpi="96"
       inkscape:export-ydpi="96"
       style="display:inline"><path
         style="display:inline;fill:#c19a4c;fill-opacity:1;stroke-width:0.264583"
         d="m -139.23812,270.24592 c 0.82682,-2.48047 5.16764,-9.71002 5.58106,-15.08437 -0.82683,-4.54752 -0.41342,-8.8832 -3.10059,-13.01731 -3.30729,-5.78776 -59.32455,-20.06075 -64.49219,-23.16134 -11.36882,2.06706 -58.70443,-2.06705 -62.01172,-5.37434 -2.89388,-4.34082 -1.32143,-15.38306 -3.25316,-26.97347 -4.89373,-13.13579 -15.247,-42.47966 -15.247,-42.47966 0,0 -11.75707,-26.39233 -15.39958,-39.6875 0.91063,-7.467153 38.03386,-20.670567 38.03386,-20.670567 0,0 6.09781,-13.53922 7.85481,-20.67057 0.10335,-4.34082 -1.03353,-5.37435 -0.82682,-11.57552 2.48047,-4.54753 31.93604,-22.11752 39.6875,-27.69857 5.06429,-3.41064 42.58138,-20.5672199 48.36914,-25.2180999 2.37712,-3.927409 0.72347,-2.480469 2.06706,-6.201172 2.37712,-1.44694 11.26546,-1.756998 13.22916,-4.9609371 1.34359,-1.756999 1.24024,-2.067058 1.24024,-5.787761 -2.48047,-2.89388 -14.4694,-6.51123 -21.91081,-6.201171 -5.16764,1.653646 -1.44693,10.955404 -1.65364,14.469401 -4.54753,4.1341151 -40.51433,21.91081 -40.51433,21.91081 l -20.25716,1.24023 26.87175,-21.0839829 5.37435,-9.0950521 7.60677,-1.240235 3.96875,-6.614583 -7.028,-5.374349 -16.53646,4.134115 0.41342,8.68164 c 0,0 -42.84002,26.3035571 -47.95573,31.419267 -2.92326,7.16199 -4.37629,12.61084 -4.96094,18.60352 -5.11571,3.21559 -41.75456,15.70963 -41.75456,15.70963 l 7.028,-28.9388 4.13411,4.13412 -2.48047,-7.85482 -6.20117,4.96094 1.65365,-21.49739893 v 0 -9.09505107 0 l -0.69919,6.4731017 0.69919,2.62194937 -3.30729,-12.40234307 -9.09506,22.7376321 c 0,0 4.11842,6.6983209 4.11842,8.3519669 0,1.653646 -7.83912,1.569903 -7.83912,1.569903 l 6.98875,7.598413 -2.02781,9.764867 v 0 l -6.61459,8.26823 -18.1901,22.32422 -13.64258,33.486327 -11.57552,23.15104 -13.64258,16.94987 7.85482,28.52539 c 0,0 -2.63483,12.12518 -11.01261,20.13871 -11.29179,20.03383 7.08403,26.63485 14.73331,33.19137 15.66281,15.29856 16.66382,14.50732 20.67058,23.97786 3.27826,15.29856 1.86512,23.22191 1.13851,25.88907 -1.21395,2.98723 -9.15336,16.3425 -10.64698,17.10572 -3.01501,1.88375 -9.4682,3.9665 -15.29622,5.78776 -17.11981,9.47054 -23.15104,13.22917 -23.15104,13.22917 0,0 -17.14107,-10.53237 -18.19011,1.24023 1.98153,6.1777 2.44944,3.64775 4.54753,7.028 0.69936,5.12866 -1.47335,15.15953 -1.24023,18.1901 0.46624,2.91401 4.72781,9.53026 4.96093,11.16211 0,0 -1.91203,16.32975 4.54753,25.2181 2.99723,2.94556 7.69979,7.13134 10.33528,6.61458 1.70533,-1.18856 2.17041,-5.58105 3.72071,-6.61458 1.13688,-0.8785 5.45202,2.91688 7.10566,2.24509 1.5503,-0.98185 2.24777,-2.29676 1.93771,-4.10544 -0.25838,-2.17041 -4.28914,-5.32267 -5.32267,-8.06152 -0.20671,-2.48047 7.028,-18.60352 7.028,-18.60352 l 16.12304,-13.22917 16.94987,-9.50846 c 0,0 6.04392,-2.79873 24.07436,-25.20019 11.01056,-19.93866 11.40412,-39.26485 18.50702,-52.92428 6.3744,-7.1029 11.39282,-5.05504 15.39958,-4.14441 5.28164,4.37102 30.6958,44.02832 31.31592,49.19596 0,0 9.69187,11.50029 16.12304,12.81576 3.9464,0.73082 23.36814,21.34693 24.39128,23.97786 0,0 10.81963,11.5963 11.98893,13.64258 1.1693,2.33861 -0.24647,9.52494 1.65365,14.05599 -2.27376,-3.7207 4.29948,1.24024 4.29948,1.24024 1.86035,-1.03353 9.13639,-12.81576 10.58333,-15.70964 1.03353,-4.13411 -0.82682,-8.47493 -2.48047,-11.57552 -2.68717,-2.48047 -2.52181,1.44694 -8.10286,-0.41341 -3.30729,-9.71517 -36.33887,-33.27962 -40.67969,-40.10091 -2.89388,-5.16764 -3.7207,-7.64811 -5.78776,-11.16211 -1.65365,-3.10059 -1.24023,-0.41342 -3.30729,-0.82683 -2.48047,-2.27376 -14.05599,-30.99556 -14.05599,-30.99556 0,0 0.82682,-5.38464 1.65364,-7.4517 4.13411,-2.48047 43.61491,-4.96094 52.50326,2.89388 l 11.98893,-2.89388 c 0,0 35.55339,13.22916 39.6875,15.70963 2.89388,2.68717 5.37435,17.77669 10.7487,19.84375 z"
         id="path3"
         inkscape:label="path5"
         sodipodi:nodetypes="ccccccccccccccccccccccccccccccccccccccccccsccccccccccccccccccccccccccccccccccccccccccccccccccc" /><path
         style="fill:#d71e00;fill-opacity:1;stroke-width:0.264583"
         d="m -264.50179,200.37939 -0.84333,-8.99551 c -1.1693,-6.35809 -64.47568,-29.03834 -64.47568,-29.03834 -4.67722,-4.01948 1.24023,-4.13412 1.24023,-4.13412 l 52.06842,0.0332 -2.81463,-7.5541 c 0,0 -46.56661,0.49292 -55.45496,-1.57414 -7.75146,-8.9917 -7.44141,-13.22917 -7.44141,-14.88281 0,-1.65365 -1.75699,-4.54753 3.72071,-12.40235 3.61735,-6.09782 17.66993,-21.71663 23.15104,-21.49739 4.01948,-0.29233 20.52849,10.16056 20.52849,10.16056 l -2.33839,-6.02646 c 0,0 -14.6822,-4.756007 -18.19011,-10.748687 -0.58465,-5.26187 3.16114,-5.97762 3.3073,-8.68164 -0.36541,-5.26187 -9.92187,-3.51399 -17.77669,0.41342 -7.64811,3.514 -15.70964,8.26822 -21.4974,13.64257 -5.16764,6.407877 -7.04625,15.147967 -12.74112,24.221877 -18.85908,8.21506 -15.4971,10.01891 -17.62827,17.27511 -1.90012,13.58125 9.38999,21.82805 9.38999,21.82805 1.79576,1.96371 1.96247,11.50244 1.96247,11.50244 0,0 7.14263,-2.60155 11.16211,-2.89388 5.18879,-1.31547 29.11471,-0.42953 29.35222,-1.65365 0.56638,-0.78563 -0.41341,-3.30729 -0.41341,-3.30729 -4.7503,2.55785 63.61306,38.91728 65.73242,34.31314 z"
         id="path4"
         sodipodi:nodetypes="cccccccscccccccccccccccc" /><path
         style="display:inline;fill:#d71e00;fill-opacity:1;stroke-width:0.264583"
         d="m -402.3618,348.92346 20.68411,-6.78413 3.65407,-0.43847 5.20803,1.30548 -1.99244,4.54102 6.57734,-3.80024 1.46163,-2.04626 10.96222,-3.50793 -1.75395,-3.80023 -8.3313,3.36174 c 0,0 1.02314,-12.71617 -0.14616,-18.41653 -1.1693,-5.70037 -7.33842,-21.42716 -7.33842,-21.42716 l -2.92348,1.67056 c 0,0 7.04632,16.68717 7.33864,21.94904 0.29233,5.26187 0.87698,14.03165 -0.73082,15.93178 -1.60779,1.9001 -8.33129,0.58465 -8.33129,0.58465 0,0 -2.04628,-9.9391 -4.67721,-16.51643 -2.63094,-6.57733 -6.8952,-14.35139 -6.8952,-14.35139 l -2.6499,1.51423 c 0,0 6.768,11.96017 6.768,15.61425 0,3.65408 3.06942,14.17783 3.06942,14.17783 l -19.7593,7.82836 z"
         id="path27"
         sodipodi:nodetypes="ccccccccccsccsscsccsccc" /><path
         style="fill:none;fill-opacity:1;stroke:#bcb2ad;stroke-width:0.724494;stroke-opacity:1"
         d="m -355.80684,338.19293 c 0,0 1.73194,0.45814 2.63094,-1.68089 0,0 3.58099,-2.04628 4.16564,-4.45796 0.58466,-2.4117 1.24239,-11.61997 -0.58465,-16.44335 -1.82704,-4.82338 -3.87332,-10.01215 -3.87332,-10.01215 0,0 -0.95006,-0.87699 -2.33861,-0.36542 -1.38855,0.51157 0.65774,3.87332 0.65774,3.87332 0,0 4.89646,8.2582 4.96954,11.76612 0.0731,3.5079 -0.0731,9.06211 -1.02314,10.45065 -0.95006,1.38856 -3.14251,2.63093 -3.14251,2.63093 0,0 -2.84745,-1.05272 -3.21558,0.43852 -0.89213,3.61386 1.75395,3.65974 1.75395,3.80023 z"
         id="path44"
         sodipodi:nodetypes="ccsscscsscsc" /><path
         style="fill:none;fill-opacity:1;stroke:#bcb2ad;stroke-width:0.724495;stroke-opacity:1"
         d="m -354.34521,333.95418 1.16931,2.55786"
         id="path45" /><path
         style="fill:#520;fill-opacity:1;stroke:none;stroke-width:0.0118582;stroke-opacity:1"
         d="m -319.48552,44.936683 13.64258,3.30729 7.028,-28.9388 4.13411,4.13412 -2.48047,-7.85482 -6.20117,4.96094 4.95048,-15.5631106 14.62115,-24.0249664 -17.91798,18.09067807 8.66594,-14.91682307 v 0 l 3.42504,-7.250403 -15.39827,9.764883 -9.09506,22.7376321 6.4262,-25.6053501 -10.3536,33.66687 -1.87082,-7.6847368 c 0,0 2.17564,15.4518938 7.03846,26.9083668 0,0 -5.80215,-27.9798355 -7.03846,-26.9083668 1.56599,15.4950858 0.42387,35.1765968 0.42387,35.1765968 l 13.64258,3.30729"
         id="path62"
         sodipodi:nodetypes="ccccccccccccccccccccc" /><path
         style="fill:#f55;fill-opacity:1;stroke:none;stroke-width:0.0118582;stroke-opacity:1"
         d="m -379.79197,372.79443 c 0.51676,-0.37465 -1.06529,-6.30243 -3.50472,-10.53182 -1.9052,-3.30315 -4.30257,-4.25779 -5.37856,-4.94058 -1.08261,-0.687 -4.79626,-3.9687 -7.1217,-1.02315 -1.24024,4.18579 1.22879,4.32031 2.88244,6.74911 2.53214,1.39526 3.51896,1.03484 5.32763,2.48178 1.08521,1.70532 1.97662,7.54122 2.90679,7.55414 0.51157,-0.14616 0.34844,-1.13196 1.1158,-1.55218 1.35201,-0.25579 3.1522,1.2627 3.77232,1.2627 z"
         id="path67"
         sodipodi:nodetypes="csscccccc" /><path
         style="fill:none;fill-opacity:1;stroke:black;stroke-width:0.59291;stroke-opacity:1"
         d="m -382.66083,371.57658 c 0,0 -1.42855,-5.68575 -2.9998,-7.73203 -2.08283,-2.55785 -6.46772,-4.82338 -6.46772,-4.82338"
         id="path118"
         sodipodi:nodetypes="ccc" /><path
         id="path121"
         style="fill:white;fill-opacity:1;stroke:none;stroke-width:0.0162427;stroke-opacity:1"
         d="m -396.72408,317.36 c -3.1136,-3e-5 -5.6377,3.88394 -5.63772,8.67511 4e-5,4.79117 2.52412,8.67512 5.63772,8.67509 3.11359,3e-5 5.63767,-3.88394 5.63771,-8.67509 -3e-5,-4.79116 -2.52411,-8.67514 -5.63771,-8.67511 z"
         sodipodi:nodetypes="sssss" /><path
         style="fill:#cbbea4;fill-opacity:1;stroke:none;stroke-width:0.59291"
         d="m -33.241705,57.331718 c 0,0 -0.03125,0.103134 0.290306,0.06221 0.09939,-0.333252 -0.143205,-0.618509 -0.20167,-0.7179 -0.40341,-0.292326 -0.648512,-0.111548 -0.648512,-0.111548 v 0 0 h -1e-6 c 0,0 -0.107822,0.198146 -0.265678,0.209839 -0.146163,-0.15201 -0.10458,-0.246384 -0.192278,-0.316543 -0.0877,-0.122777 -0.23684,-0.181172 -0.342077,-0.169479 -0.0877,-0.01169 -0.278946,0.08973 -0.394828,0.01017 -0.06821,-0.201386 -0.216194,-0.645034 -0.417404,-0.807318 -0.160957,-0.129818 -0.266883,-0.235554 -0.38966,-0.0017 -0.05262,0.216321 0.166154,1.118806 0.166154,1.282509 0,0.11693 -0.04511,0.144156 -0.02172,0.290319 0.03508,0.122777 0.100537,0.19269 0.182388,0.32716 0.175396,0.07601 0.660329,0.07109 0.660329,0.07109 l 0.676221,0.0052 0.898433,-0.06385 0.290306,-0.008"
         id="path142"
         sodipodi:nodetypes="cccccccccccscccccccc"
         transform="matrix(0,-19.936717,19.936717,0,-1291.7528,-675.25798)"
         inkscape:label="dust" /><path
         style="fill:#a06c31;fill-opacity:1;stroke:none;stroke-width:11.8207"
         d="m -147.50732,-18.315323 c 1.74841,5.24522 1.97981,45.028057 -0.16835,47.452098 -5.05105,5.699767 -26.00892,6.894591 -28.22357,5.845547 -1.7484,-0.932484 1.03324,-2.945761 1.03324,-2.945761 2.56433,-2.098088 18.82235,-5.229969 23.54135,-10.506148 1.88987,-15.2510531 0.95908,-19.6893584 1.65844,-25.9836217 0.81592,-3.7299339 -2.85321,-14.5614773 2.15889,-13.8621143 z"
         id="path165"
         sodipodi:nodetypes="csccccc" /><ellipse
         style="fill:black;fill-opacity:1;stroke:none;stroke-width:0.967256"
         id="ellipse165"
         cx="-50.365707"
         cy="44.923122"
         rx="0.15944803"
         ry="0.11368815"
         transform="matrix(0,-19.936717,19.936717,0,-1291.7528,-675.25798)" /><ellipse
         style="fill:white;fill-opacity:1;stroke:none;stroke-width:0.448198"
         id="ellipse166"
         cx="-50.266922"
         cy="44.927834"
         rx="0.02046282"
         ry="0.034348313"
         transform="matrix(0,-19.936717,19.936717,0,-1291.7528,-675.25798)" /></g></g></svg>
